# xmcd CD database file
#
# Track frame offsets:
#	150
#	14862
#	27718
#	38028
#	50167
#	65244
#	79729
#	88150
#	98956
#	107626
#	120175
#	131740
#	143197
#	153523
#	167048
#	177895
#	186255
#	197127
#	208035
#	220640
#	232555
#	246411
#	259851
#	269189
#
# Disc length: 3725 seconds
#
# Revision: 0
# Processed by: cddbd v1.5.2PL0 Copyright (c) Steve Scherf et al.
# Submitted via: CD2WAV32(JP) R3.22
#
DISCID=6c0e8b18
DTITLE=勝手に観光協会 - 勝手にご当地ソング47+1
DYEAR=2008
DGENRE=Acapella
TTITLE0=01_青春リピーター(北海道)
TTITLE1=02_北のそんなこと節(北海道)
TTITLE2=03_斜陽の恋(青森県)
TTITLE3=04_岩手でガスガスガス(岩手県)
TTITLE4=05_哀愁ちゃナイト(宮城県)
TTITLE5=06_なまはげ兄弟(秋田県)
TTITLE6=07_ガッタ山形(山形県)
TTITLE7=08_あぁ、もっともだ(福島県)
TTITLE8=09_涙の印籠(茨城県)
TTITLE9=10_ソバユバロマンス(栃木県)
TTITLE10=11_上州の風(群馬県)
TTITLE11=12_やるねさいたま(埼玉県)
TTITLE12=13_バチバチ☆チバチバ(千葉県)
TTITLE13=14_すこぶるブルー東京(東京都)
TTITLE14=15_恋のスイッチバック！（三度まで）(神奈川県)
TTITLE15=16_新潟レイニーデイ(新潟県)
TTITLE16=17_そっとして富山(富山県)
TTITLE17=18_リメンバーNOTO(石川県)
TTITLE18=19_アドベンチャー越前(福井県)
TTITLE19=20_恋はGO!GO!ME!!(山梨県)
TTITLE20=21_愛の双体道祖神(長野県)
TTITLE21=22_ギフト岐阜(岐阜県)
TTITLE22=23_静岡ロンリーナイト(静岡県)
TTITLE23=24_センチメンタル名古屋(愛知県)
EXTD=
EXTT0=01_青春リピーター(北海道)
EXTT1=02_北のそんなこと節(北海道)
EXTT2=03_斜陽の恋(青森県)
EXTT3=04_岩手でガスガスガス(岩手県)
EXTT4=05_哀愁ちゃナイト(宮城県)
EXTT5=06_なまはげ兄弟(秋田県)
EXTT6=07_ガッタ山形(山形県)
EXTT7=08_あぁ、もっともだ(福島県)
EXTT8=09_涙の印籠(茨城県)
EXTT9=10_ソバユバロマンス(栃木県)
EXTT10=11_上州の風(群馬県)
EXTT11=12_やるねさいたま(埼玉県)
EXTT12=13_バチバチ☆チバチバ(千葉県)
EXTT13=14_すこぶるブルー東京(東京都)
EXTT14=15_恋のスイッチバック！（三度まで）(神奈川県)
EXTT15=16_新潟レイニーデイ(新潟県)
EXTT16=17_そっとして富山(富山県)
EXTT17=18_リメンバーNOTO(石川県)
EXTT18=19_アドベンチャー越前(福井県)
EXTT19=20_恋はGO!GO!ME!!(山梨県)
EXTT20=21_愛の双体道祖神(長野県)
EXTT21=22_ギフト岐阜(岐阜県)
EXTT22=23_静岡ロンリーナイト(静岡県)
EXTT23=24_センチメンタル名古屋(愛知県)
PLAYORDER=
